{
    "asset" : {
        "generator" : "Khronos glTF Blender I/O v3.2.40",
        "version" : "2.0"
    },
    "scene" : 0,
    "scenes" : [
        {
            "name" : "Scene",
            "nodes" : [
                0
            ]
        }
    ],
    "nodes" : [
        {
            "mesh" : 0,
            "name" : "Mesh_0"
        }
    ],
    "meshes" : [
        {
            "name" : "Mesh_0",
            "primitives" : [
                {
                    "attributes" : {
                        "POSITION" : 0
                    },
                    "indices" : 1
                }
            ]
        }
    ],
    "accessors" : [
        {
            "bufferView" : 0,
            "componentType" : 5126,
            "count" : 26934,
            "max" : [
                0.14423370361328125,
                0.37606924772262573,
                0.2561337947845459
            ],
            "min" : [
                -0.1342596709728241,
                -0.11910214275121689,
                -0.28408029675483704
            ],
            "type" : "VEC3"
        },
        {
            "bufferView" : 1,
            "componentType" : 5123,
            "count" : 149010,
            "type" : "SCALAR"
        }
    ],
    "bufferViews" : [
        {
            "buffer" : 0,
            "byteLength" : 323208,
            "byteOffset" : 0
        },
        {
            "buffer" : 0,
            "byteLength" : 298020,
            "byteOffset" : 323208
        }
    ],
    "buffers" : [
        {
            "byteLength" : 621228,
            "uri" : "data:application/octet-stream;base64,"
        }
    ]
}
