{
    "asset" : {
        "generator" : "Khronos glTF Blender I/O v3.2.40",
        "version" : "2.0"
    },
    "scene" : 0,
    "scenes" : [
        {
            "name" : "Scene",
            "nodes" : [
                0
            ]
        }
    ],
    "nodes" : [
        {
            "mesh" : 0,
            "name" : "Mesh_0"
        }
    ],
    "meshes" : [
        {
            "name" : "Mesh_0",
            "primitives" : [
                {
                    "attributes" : {
                        "POSITION" : 0
                    },
                    "indices" : 1
                }
            ]
        }
    ],
    "accessors" : [
        {
            "bufferView" : 0,
            "componentType" : 5126,
            "count" : 45591,
            "max" : [
                0.14412066340446472,
                0.37625035643577576,
                0.25517475605010986
            ],
            "min" : [
                -0.13529393076896667,
                -0.11921077221632004,
                -0.2842617332935333
            ],
            "type" : "VEC3"
        },
        {
            "bufferView" : 1,
            "componentType" : 5123,
            "count" : 144360,
            "type" : "SCALAR"
        }
    ],
    "bufferViews" : [
        {
            "buffer" : 0,
            "byteLength" : 547092,
            "byteOffset" : 0
        },
        {
            "buffer" : 0,
            "byteLength" : 288720,
            "byteOffset" : 547092
        }
    ],
    "buffers" : [
        {
            "byteLength" : 835812,
            "uri" : "data:application/octet-stream;base64,"
        }
    ]
}
